<?xml version="1.0" encoding="UTF-8" standalone="no"?>
<svg
   id="Bold"
   fill="#00c2ef"
   enable-background="new 0 0 24 24"
   height="566.92914"
   viewBox="0 0 26.574803 26.574803"
   width="566.92914"
   version="1.1"
   sodipodi:docname="001-telegram.svg"
   inkscape:version="1.1 (c4e8f9e, 2021-05-24)"
   xmlns:inkscape="http://www.inkscape.org/namespaces/inkscape"
   xmlns:sodipodi="http://sodipodi.sourceforge.net/DTD/sodipodi-0.dtd"
   xmlns="http://www.w3.org/2000/svg"
   xmlns:svg="http://www.w3.org/2000/svg">
  <defs
     id="defs829" />
  <sodipodi:namedview
     id="namedview827"
     pagecolor="#505050"
     bordercolor="#ffffff"
     borderopacity="1"
     inkscape:pageshadow="0"
     inkscape:pageopacity="0"
     inkscape:pagecheckerboard="1"
     showgrid="false"
     inkscape:zoom="0.43158373"
     inkscape:cx="147.13252"
     inkscape:cy="497.00669"
     inkscape:window-width="1312"
     inkscape:window-height="847"
     inkscape:window-x="2037"
     inkscape:window-y="111"
     inkscape:window-maximized="0"
     inkscape:current-layer="Bold" />
  <circle
     style="fill:#eeeeee;fill-opacity:1;fill-rule:evenodd;stroke-width:0.0367793"
     id="path933"
     cx="13.287401"
     cy="13.287401"
     r="13.287401" />
  <path
     d="m 13.287401,25.287401 c 6.629,0 12,-5.371 12,-12 0,-6.6289998 -5.371,-11.9999998 -12,-11.9999998 -6.6289996,0 -11.9999996,5.371 -11.9999996,11.9999998 0,6.629 5.371,12 11.9999996,12 z m -6.5089996,-12.26 11.5699996,-4.4609998 c 0.537,-0.194 1.006,0.131 0.832,0.943 l 0.001,-10e-4 -1.97,9.2809998 c -0.146,0.658 -0.537,0.818 -1.084,0.508 l -3,-2.211 -1.447,1.394 c -0.16,0.16 -0.295,0.295 -0.605,0.295 l 0.213,-3.053 5.56,-5.023 c 0.242,-0.213 -0.054,-0.333 -0.373,-0.121 l -6.8709996,4.326 -2.962,-0.924 c -0.643,-0.204 -0.657,-0.643 0.136,-0.953 z"
     id="path824" />
</svg>
