<?xml version="1.0" encoding="UTF-8" standalone="no"?>
<svg
   height="556.26886pt"
   fill="#00c2ef"
   viewBox="0 0 556.26886 556.26886"
   width="556.26886pt"
   version="1.1"
   id="svg830"
   sodipodi:docname="002-instagram.svg"
   inkscape:version="1.1 (c4e8f9e, 2021-05-24)"
   xmlns:inkscape="http://www.inkscape.org/namespaces/inkscape"
   xmlns:sodipodi="http://sodipodi.sourceforge.net/DTD/sodipodi-0.dtd"
   xmlns="http://www.w3.org/2000/svg"
   xmlns:svg="http://www.w3.org/2000/svg">
  <defs
     id="defs834" />
  <sodipodi:namedview
     id="namedview832"
     pagecolor="#505050"
     bordercolor="#ffffff"
     borderopacity="1"
     inkscape:pageshadow="0"
     inkscape:pageopacity="0"
     inkscape:pagecheckerboard="1"
     inkscape:document-units="pt"
     showgrid="false"
     inkscape:zoom="0.22888184"
     inkscape:cx="718.71147"
     inkscape:cy="626.96107"
     inkscape:window-width="1312"
     inkscape:window-height="847"
     inkscape:window-x="0"
     inkscape:window-y="25"
     inkscape:window-maximized="0"
     inkscape:current-layer="svg830" />
  <circle
     style="fill:#eeeeee;fill-opacity:1;fill-rule:evenodd;stroke-width:0.706548"
     id="path938"
     cx="278.13443"
     cy="278.13443"
     r="278.13443" />
  <path
     d="m 327.13443,278.13443 c 0,27.0625 -21.9375,49 -49,49 -27.0625,0 -49,-21.9375 -49,-49 0,-27.0625 21.9375,-49 49,-49 27.0625,0 49,21.9375 49,49 z m 0,0"
     id="path824" />
  <path
     d="m 392.73014,191.43717 c -2.35547,-6.38282 -6.11328,-12.16016 -10.99609,-16.90235 -4.74219,-4.88281 -10.51563,-8.64062 -16.90235,-10.99609 -5.17969,-2.01172 -12.96094,-4.40625 -27.29297,-5.05859 -15.5039,-0.70704 -20.15234,-0.85938 -59.40234,-0.85938 -39.25391,0 -43.90234,0.14844 -59.40235,0.85547 -14.33204,0.65625 -22.11719,3.05078 -27.29297,5.0625 -6.38672,2.35547 -12.16406,6.11328 -16.90234,10.99609 -4.88282,4.74219 -8.64063,10.51563 -11,16.90235 -2.01172,5.17968 -4.40625,12.96484 -5.0586,27.29687 -0.70703,15.5 -0.85937,20.14844 -0.85937,59.40235 0,39.25 0.15234,43.89843 0.85937,59.40234 0.65235,14.33203 3.04688,22.11328 5.0586,27.29297 2.35937,6.38672 6.11328,12.16015 10.99609,16.90234 4.74219,4.88281 10.51562,8.64063 16.90234,10.9961 5.17969,2.01562 12.96484,4.41015 27.29688,5.0625 15.50001,0.70703 20.14454,0.85546 59.39844,0.85546 39.25782,0 43.90625,-0.14843 59.40235,-0.85546 14.33203,-0.65235 22.11718,-3.04688 27.29687,-5.0625 12.82031,-4.94532 22.95313,-15.07813 27.89844,-27.89844 2.01172,-5.17969 4.40625,-12.96094 5.0625,-27.29297 0.70703,-15.50391 0.85547,-20.15234 0.85547,-59.40234 0,-39.25391 -0.14844,-43.90235 -0.85547,-59.40235 -0.65234,-14.33203 -3.04688,-22.11719 -5.0625,-27.29687 z M 278.13639,353.61685 c -41.69141,0 -75.48829,-33.79296 -75.48829,-75.48437 0,-41.69141 33.79688,-75.48438 75.48829,-75.48438 41.6875,0 75.48437,33.79297 75.48437,75.48438 0,41.69141 -33.79687,75.48437 -75.48437,75.48437 z m 78.46875,-136.3125 c -9.74219,0 -17.64063,-7.89843 -17.64063,-17.64062 0,-9.74219 7.89844,-17.64063 17.64063,-17.64063 9.74219,0 17.64062,7.89844 17.64062,17.64063 -0.004,9.74219 -7.89843,17.64062 -17.64062,17.64062 z m 0,0"
     id="path826" />
  <path
     d="m 278.13443,22.134431 c -141.36328,0 -256.000002,114.636719 -256.000002,255.999999 0,141.36328 114.636722,256 256.000002,256 141.36328,0 256,-114.63672 256,-256 0,-141.36328 -114.63672,-255.999999 -256,-255.999999 z M 424.24771,338.7399 c -0.71094,15.64844 -3.19922,26.33203 -6.83203,35.68359 -7.63672,19.7461 -23.2461,35.35547 -42.99219,42.99219 -9.34766,3.63281 -20.03516,6.11719 -35.67969,6.83203 -15.67578,0.71484 -20.68359,0.88672 -60.60547,0.88672 -39.92578,0 -44.92968,-0.17188 -60.60937,-0.88672 -15.64453,-0.71484 -26.33203,-3.19922 -35.67969,-6.83203 -9.8125,-3.69141 -18.69531,-9.47656 -26.03906,-16.95703 -7.47656,-7.33985 -13.26172,-16.22656 -16.95313,-26.03516 -3.63281,-9.34765 -6.12109,-20.03515 -6.83203,-35.67969 -0.72265,-15.67968 -0.89062,-20.6875 -0.89062,-60.60937 0,-39.92187 0.16797,-44.92969 0.88672,-60.60547 0.71093,-15.64844 3.19531,-26.33203 6.82812,-35.68359 3.69141,-9.8086 9.48047,-18.69531 16.96094,-26.03516 7.33984,-7.48047 16.22656,-13.26562 26.03516,-16.95703 9.35156,-3.63281 20.03515,-6.11719 35.68359,-6.83203 15.67578,-0.71484 20.68359,-0.88672 60.60547,-0.88672 39.92187,0 44.92968,0.17188 60.60547,0.89063 15.64843,0.71093 26.33203,3.19531 35.68359,6.82421 9.80859,3.69141 18.69531,9.48047 26.03906,16.96094 7.47656,7.34375 13.26563,16.22656 16.95313,26.03516 3.63672,9.35156 6.12109,20.03515 6.83593,35.68359 0.71485,15.67578 0.88282,20.6836 0.88282,60.60547 0,39.92187 -0.16797,44.92969 -0.88672,60.60547 z m 0,0"
     id="path828" />
</svg>
