<?xml version="1.0" encoding="UTF-8" standalone="no"?>
<svg
   height="549.71521pt"
   fill="#00c2ef"
   viewBox="0 0 549.71521 549.71521"
   width="549.71521pt"
   version="1.1"
   id="svg826"
   sodipodi:docname="004-twitter.svg"
   inkscape:version="1.1 (c4e8f9e, 2021-05-24)"
   xmlns:inkscape="http://www.inkscape.org/namespaces/inkscape"
   xmlns:sodipodi="http://sodipodi.sourceforge.net/DTD/sodipodi-0.dtd"
   xmlns="http://www.w3.org/2000/svg"
   xmlns:svg="http://www.w3.org/2000/svg">
  <defs
     id="defs830" />
  <sodipodi:namedview
     id="namedview828"
     pagecolor="#505050"
     bordercolor="#ffffff"
     borderopacity="1"
     inkscape:pageshadow="0"
     inkscape:pageopacity="0"
     inkscape:pagecheckerboard="1"
     inkscape:document-units="pt"
     showgrid="false"
     inkscape:zoom="0.45776367"
     inkscape:cx="368.09387"
     inkscape:cy="584.36267"
     inkscape:window-width="1312"
     inkscape:window-height="847"
     inkscape:window-x="0"
     inkscape:window-y="25"
     inkscape:window-maximized="0"
     inkscape:current-layer="svg826" />
  <circle
     style="fill:#eeeeee;fill-opacity:1;fill-rule:evenodd;stroke-width:2.63675"
     id="path934"
     cx="274.8576"
     cy="274.8576"
     r="274.8576" />
  <path
     d="m 274.8576,18.857607 c -141.36328,0 -255.999994,114.636713 -255.999994,255.999993 0,141.36328 114.636714,256 255.999994,256 141.36328,0 256,-114.63672 256,-256 0,-141.36328 -114.63672,-255.999993 -256,-255.999993 z M 391.74432,218.45916 c 0.11328,2.51953 0.16797,5.05078 0.16797,7.59375 0,77.64453 -59.10156,167.17969 -167.18359,167.1836 h 0.004 -0.004 c -33.1836,0 -64.0625,-9.72657 -90.06641,-26.39454 4.59766,0.54297 9.27734,0.8125 14.01562,0.8125 27.53125,0 52.86719,-9.39062 72.98047,-25.15234 -25.72265,-0.47656 -47.41015,-17.46484 -54.89453,-40.8125 3.58203,0.6875 7.26563,1.0625 11.04297,1.0625 5.36328,0 10.55859,-0.72266 15.49609,-2.07031 -26.88671,-5.38281 -47.14062,-29.14453 -47.14062,-57.59766 0,-0.26562 0,-0.5039 0.008,-0.75 7.91797,4.40235 16.97266,7.05078 26.61328,7.34766 -15.77734,-10.52735 -26.14843,-28.52344 -26.14843,-48.91016 0,-10.76562 2.91015,-20.85156 7.95703,-29.53515 28.97656,35.55468 72.28125,58.9375 121.11718,61.39453 -1.00781,-4.30469 -1.52734,-8.78907 -1.52734,-13.39844 0,-32.4375 26.31641,-58.75391 58.76563,-58.75391 16.90234,0 32.16796,7.14453 42.89062,18.56641 13.38672,-2.64063 25.95703,-7.53125 37.3125,-14.26172 -4.39453,13.71484 -13.70703,25.22266 -25.83984,32.5 11.88672,-1.42187 23.21484,-4.57422 33.74218,-9.25391 -7.86328,11.78516 -17.83593,22.13672 -29.30859,30.42969 z m 0,0"
     id="path824" />
</svg>
