<?xml version="1.0" encoding="UTF-8" standalone="no"?>
<svg
   height="549.71521pt"
   fill="#00c2ef"
   viewBox="0 0 549.71521 549.71521"
   width="549.71521pt"
   version="1.1"
   id="svg826"
   sodipodi:docname="005-linkedin.svg"
   inkscape:version="1.1 (c4e8f9e, 2021-05-24)"
   xmlns:inkscape="http://www.inkscape.org/namespaces/inkscape"
   xmlns:sodipodi="http://sodipodi.sourceforge.net/DTD/sodipodi-0.dtd"
   xmlns="http://www.w3.org/2000/svg"
   xmlns:svg="http://www.w3.org/2000/svg">
  <defs
     id="defs830" />
  <sodipodi:namedview
     id="namedview828"
     pagecolor="#505050"
     bordercolor="#ffffff"
     borderopacity="1"
     inkscape:pageshadow="0"
     inkscape:pageopacity="0"
     inkscape:pagecheckerboard="1"
     inkscape:document-units="pt"
     showgrid="false"
     inkscape:zoom="0.22888184"
     inkscape:cx="225.00693"
     inkscape:cy="522.10347"
     inkscape:window-width="1312"
     inkscape:window-height="847"
     inkscape:window-x="0"
     inkscape:window-y="25"
     inkscape:window-maximized="0"
     inkscape:current-layer="svg826" />
  <circle
     style="fill:#eeeeee;fill-opacity:1;fill-rule:evenodd;stroke-width:0.380957"
     id="path934"
     cx="274.8576"
     cy="274.8576"
     r="274.8576" />
  <path
     d="m 274.85761,18.857605 c -141.36328,0 -256.000005,114.636725 -256.000005,256.000005 0,141.36328 114.636725,256 256.000005,256 141.36328,0 256,-114.63672 256,-256 0,-141.36328 -114.63672,-256.000005 -256,-256.000005 z M 200.46698,405.85761 H 138.11933 V 218.28339 h 62.34765 z m -31.17187,-213.1875 h -0.40625 c -20.92188,0 -34.45313,-14.40234 -34.45313,-32.40234 0,-18.40625 13.94532,-32.41016 35.27344,-32.41016 21.32813,0 34.45313,14.00391 34.85938,32.41016 0,18 -13.53125,32.40234 -35.27344,32.40234 z m 255.98437,213.1875 H 362.93964 V 305.50995 c 0,-25.21875 -9.02734,-42.41797 -31.58594,-42.41797 -17.22265,0 -27.48047,11.60157 -31.98828,22.80079 -1.64844,4.00781 -2.05078,9.60937 -2.05078,15.21484 v 104.75 h -62.34375 c 0,0 0.81641,-169.97656 0,-187.57422 h 62.34375 v 26.55859 c 8.28516,-12.78125 23.10938,-30.96093 56.1875,-30.96093 41.01953,0 71.77734,26.80859 71.77734,84.42187 z m 0,0"
     id="path824" />
</svg>
